<?xml version="1.0" encoding="UTF-8"?><svg id="a" xmlns="http://www.w3.org/2000/svg" viewBox="0 0 299.92 299.92"><defs><style>.b{fill:#16ffbd;}</style></defs><path class="b" d="M179.01,114.99v-23.12c-8.3,0-5.93-.59-14.23-.59s-13.04,1.19-18.97,4.15c-5.33,2.96-7.71,5.93-10.08,10.08-1.78,4.15-2.96,9.48-2.96,17.78v2.96h-11.85l-.59,23.12h11.85v58.68h23.71v-58.68h21.34l2.96-23.12h-23.71s-1.78-7.11,1.78-10.67c1.78-1.19,20.75-.59,20.75-.59Z"/><path class="b" d="M149.96,299.92C66.98,299.92,0,232.35,0,149.96S66.98,0,149.96,0s149.96,66.98,149.96,149.96-67.57,149.96-149.96,149.96Zm0-280.96C77.65,18.97,18.97,77.65,18.97,149.96s58.68,130.99,130.99,130.99,130.99-58.68,130.99-130.99S222.28,18.97,149.96,18.97Z"/></svg>