<?xml version="1.0" encoding="UTF-8"?><svg id="a" xmlns="http://www.w3.org/2000/svg" viewBox="0 0 300.33 300.33"><defs><style>.b{fill:#16ffbd;}</style></defs><path class="b" d="M150.17,300.33C67.66,300.33,0,233.26,0,150.17S67.66,0,150.17,0s150.17,67.07,150.17,150.17-67.66,150.17-150.17,150.17Zm0-281.34C77.75,18.99,18.99,77.75,18.99,150.17s58.76,131.17,131.17,131.17,131.17-58.76,131.17-131.17S222.58,18.99,150.17,18.99Z"/><g><path class="b" d="M150.17,83.69c21.37,0,24.34,0,32.64,.59,7.72,.59,11.87,1.78,14.84,2.97,3.56,1.19,6.53,2.97,9.5,5.94,2.97,2.97,4.75,5.34,5.94,9.5,1.19,2.97,2.37,7.12,2.97,14.84,.59,8.31,.59,11.28,.59,32.64s0,24.34-.59,32.64c-.59,7.72-1.78,11.87-2.97,14.84-1.19,3.56-2.97,6.53-5.94,9.5s-5.34,4.75-9.5,5.94c-2.97,1.19-7.12,2.37-14.84,2.97-8.31,.59-11.28,.59-32.64,.59s-24.34,0-32.64-.59c-7.72-.59-11.87-1.78-14.84-2.97-3.56-1.19-6.53-2.97-9.5-5.94s-4.75-5.34-5.94-9.5c-1.19-2.97-2.37-7.12-2.97-14.84-.59-8.31-.59-11.28-.59-32.64s0-24.34,.59-32.64c.59-7.72,1.78-11.87,2.97-14.84,1.19-3.56,2.97-6.53,5.94-9.5s5.34-4.75,9.5-5.94c2.97-1.19,7.12-2.37,14.84-2.97,8.31,0,11.28-.59,32.64-.59m0-14.24c-21.96,0-24.93,0-33.24,.59s-14.24,1.78-19.59,3.56-10.09,4.75-14.24,9.5c-4.75,4.75-7.12,8.9-9.5,14.24-1.78,5.34-3.56,11.28-3.56,19.59-.59,8.9-.59,11.28-.59,33.24s0,24.93,.59,33.24,1.78,14.24,3.56,19.59c1.78,5.34,4.75,10.09,9.5,14.24,4.75,4.75,8.9,7.12,14.24,9.5,5.34,1.78,11.28,3.56,19.59,3.56,8.9,.59,11.28,.59,33.24,.59s24.93,0,33.24-.59c8.31-.59,14.24-1.78,19.59-3.56,5.34-1.78,10.09-4.75,14.24-9.5,4.75-4.75,7.12-8.9,9.5-14.24,1.78-5.34,3.56-11.28,3.56-19.59,.59-8.9,.59-11.28,.59-33.24s0-24.93-.59-33.24c-.59-8.31-1.78-14.24-3.56-19.59-1.78-5.34-4.75-10.09-9.5-14.24-4.75-4.75-8.9-7.12-14.24-9.5-5.34-1.78-11.28-3.56-19.59-3.56-8.31-.59-11.28-.59-33.24-.59h0Z"/><path class="b" d="M150.17,108.62c-23.15,0-41.55,18.4-41.55,41.55s18.4,41.55,41.55,41.55,41.55-18.4,41.55-41.55-18.4-41.55-41.55-41.55Zm0,68.26c-14.84,0-26.71-11.87-26.71-26.71s11.87-26.71,26.71-26.71,26.71,11.87,26.71,26.71-11.87,26.71-26.71,26.71Z"/><circle class="b" cx="193.49" cy="106.84" r="9.5"/></g></svg>