<?xml version="1.0" encoding="UTF-8"?><svg id="a" xmlns="http://www.w3.org/2000/svg" viewBox="0 0 299.67 299.67"><defs><style>.b{fill:#16ffbd;}</style></defs><path class="b" d="M111.34,94.16s14.21-8.29,18.95,.59c4.15,2.37,13.62,57.45,15.99,68.11,1.78,10.66,7.11,14.81,10.07,10.07,2.96-4.74,13.62-16.58,20.73-33.16s-2.37-18.95-5.33-17.77-17.77,1.18-12.44-5.33c5.33-6.51,18.95-17.77,22.5-19.54,6.51-4.74,15.4-10.66,23.69-.59,5.33,4.15,17.17,17.77,5.33,39.09-11.84,20.73-55.67,69.29-55.67,69.29,0,0-16.58,11.25-23.1,0-6.51-11.25-28.43-63.37-29.61-70.48-.59-7.11-2.37-8.88-5.92-7.11s-10.66,12.44-11.25,9.48-7.11-7.11-2.96-13.62c4.15-6.51,26.06-27.24,29.02-29.02Z"/><path class="b" d="M149.83,299.67C67.51,299.67,0,232.75,0,149.83S67.51,0,149.83,0s149.83,66.92,149.83,149.83-67.51,149.83-149.83,149.83Zm0-280.72C77.58,18.95,18.95,77.58,18.95,149.83s58.63,130.88,130.88,130.88,130.88-58.63,130.88-130.88S222.09,18.95,149.83,18.95Z"/></svg>